<mxfile host="app.diagrams.net" modified="2020-12-31T09:12:07.023Z" agent="5.0 (Macintosh; Intel Mac OS X 11_1_0) AppleWebKit/537.36 (KHTML, like Gecko) Chrome/87.0.4280.88 Safari/537.36" etag="u-28GsO8YkN0ABPy-Qqg" version="13.10.1" type="github">
  <diagram id="C5RBs43oDa-KdzZeNtuy" name="Page-1">
    <mxGraphModel dx="946" dy="668" grid="0" gridSize="10" guides="1" tooltips="1" connect="1" arrows="1" fold="1" page="1" pageScale="1" pageWidth="827" pageHeight="1169" math="0" shadow="0">
      <root>
        <mxCell id="WIyWlLk6GJQsqaUBKTNV-0" />
        <mxCell id="WIyWlLk6GJQsqaUBKTNV-1" parent="WIyWlLk6GJQsqaUBKTNV-0" />
        <mxCell id="NgFh_XxpmHCgzANnnH8Q-34" value="发布系统" style="rounded=0;whiteSpace=wrap;html=1;sketch=0;dashed=1;align=center;horizontal=1;verticalAlign=top;fillColor=#d5e8d4;strokeColor=#82b366;gradientColor=#97d077;" vertex="1" parent="WIyWlLk6GJQsqaUBKTNV-1">
          <mxGeometry x="190" y="217.5" width="300" height="165" as="geometry" />
        </mxCell>
        <mxCell id="NgFh_XxpmHCgzANnnH8Q-31" value="第三方平台" style="rounded=0;whiteSpace=wrap;html=1;sketch=0;dashed=1;align=left;horizontal=1;verticalAlign=top;gradientColor=#ea6b66;fillColor=#f8cecc;strokeColor=#b85450;" vertex="1" parent="WIyWlLk6GJQsqaUBKTNV-1">
          <mxGeometry x="540" y="200" width="240" height="210" as="geometry" />
        </mxCell>
        <mxCell id="NgFh_XxpmHCgzANnnH8Q-30" value="数据" style="rounded=0;whiteSpace=wrap;html=1;sketch=0;dashed=1;align=left;horizontal=1;verticalAlign=top;gradientColor=#ffd966;fillColor=#fff2cc;strokeColor=#d6b656;" vertex="1" parent="WIyWlLk6GJQsqaUBKTNV-1">
          <mxGeometry x="540" y="440" width="240" height="80" as="geometry" />
        </mxCell>
        <mxCell id="NgFh_XxpmHCgzANnnH8Q-13" value="http" style="edgeStyle=orthogonalEdgeStyle;curved=0;rounded=1;sketch=0;orthogonalLoop=1;jettySize=auto;html=1;exitX=0.75;exitY=1;exitDx=0;exitDy=0;entryX=0.45;entryY=-0.017;entryDx=0;entryDy=0;entryPerimeter=0;" edge="1" parent="WIyWlLk6GJQsqaUBKTNV-1" source="NgFh_XxpmHCgzANnnH8Q-0" target="NgFh_XxpmHCgzANnnH8Q-1">
          <mxGeometry relative="1" as="geometry" />
        </mxCell>
        <mxCell id="NgFh_XxpmHCgzANnnH8Q-0" value="PAAS网关" style="rounded=0;whiteSpace=wrap;html=1;fontSize=14;fillColor=#ffe6cc;strokeColor=#d79b00;" vertex="1" parent="WIyWlLk6GJQsqaUBKTNV-1">
          <mxGeometry x="200" y="160" width="280" height="40" as="geometry" />
        </mxCell>
        <mxCell id="NgFh_XxpmHCgzANnnH8Q-16" style="edgeStyle=orthogonalEdgeStyle;curved=0;rounded=1;sketch=0;orthogonalLoop=1;jettySize=auto;html=1;exitX=0.5;exitY=1;exitDx=0;exitDy=0;entryX=0.786;entryY=-0.075;entryDx=0;entryDy=0;entryPerimeter=0;" edge="1" parent="WIyWlLk6GJQsqaUBKTNV-1" source="NgFh_XxpmHCgzANnnH8Q-1" target="NgFh_XxpmHCgzANnnH8Q-4">
          <mxGeometry relative="1" as="geometry" />
        </mxCell>
        <mxCell id="NgFh_XxpmHCgzANnnH8Q-35" style="edgeStyle=orthogonalEdgeStyle;curved=0;rounded=1;sketch=0;orthogonalLoop=1;jettySize=auto;html=1;exitX=1;exitY=0.5;exitDx=0;exitDy=0;entryX=0;entryY=0.5;entryDx=0;entryDy=0;" edge="1" parent="WIyWlLk6GJQsqaUBKTNV-1" source="NgFh_XxpmHCgzANnnH8Q-1" target="NgFh_XxpmHCgzANnnH8Q-31">
          <mxGeometry relative="1" as="geometry" />
        </mxCell>
        <mxCell id="NgFh_XxpmHCgzANnnH8Q-39" style="edgeStyle=orthogonalEdgeStyle;curved=0;rounded=1;sketch=0;orthogonalLoop=1;jettySize=auto;html=1;exitX=1;exitY=0.75;exitDx=0;exitDy=0;entryX=0;entryY=0.25;entryDx=0;entryDy=0;" edge="1" parent="WIyWlLk6GJQsqaUBKTNV-1" source="NgFh_XxpmHCgzANnnH8Q-1" target="NgFh_XxpmHCgzANnnH8Q-30">
          <mxGeometry relative="1" as="geometry" />
        </mxCell>
        <mxCell id="NgFh_XxpmHCgzANnnH8Q-1" value="publish_server" style="rounded=0;whiteSpace=wrap;html=1;sketch=0;fontSize=14;fillColor=#60a917;strokeColor=#2D7600;fontColor=#ffffff;" vertex="1" parent="WIyWlLk6GJQsqaUBKTNV-1">
          <mxGeometry x="360" y="240" width="120" height="120" as="geometry" />
        </mxCell>
        <mxCell id="NgFh_XxpmHCgzANnnH8Q-15" style="edgeStyle=orthogonalEdgeStyle;curved=0;rounded=1;sketch=0;orthogonalLoop=1;jettySize=auto;html=1;exitX=0.5;exitY=1;exitDx=0;exitDy=0;entryX=0.211;entryY=-0.05;entryDx=0;entryDy=0;entryPerimeter=0;" edge="1" parent="WIyWlLk6GJQsqaUBKTNV-1" source="NgFh_XxpmHCgzANnnH8Q-2" target="NgFh_XxpmHCgzANnnH8Q-0">
          <mxGeometry relative="1" as="geometry" />
        </mxCell>
        <mxCell id="NgFh_XxpmHCgzANnnH8Q-2" value="业务&lt;br&gt;（自动部署）" style="rounded=0;whiteSpace=wrap;html=1;sketch=0;fontSize=14;fillColor=#f8cecc;strokeColor=#b85450;" vertex="1" parent="WIyWlLk6GJQsqaUBKTNV-1">
          <mxGeometry x="200" y="80" width="120" height="40" as="geometry" />
        </mxCell>
        <mxCell id="NgFh_XxpmHCgzANnnH8Q-14" style="edgeStyle=orthogonalEdgeStyle;curved=0;rounded=1;sketch=0;orthogonalLoop=1;jettySize=auto;html=1;exitX=0.5;exitY=1;exitDx=0;exitDy=0;entryX=0.786;entryY=0.025;entryDx=0;entryDy=0;entryPerimeter=0;" edge="1" parent="WIyWlLk6GJQsqaUBKTNV-1" source="NgFh_XxpmHCgzANnnH8Q-3" target="NgFh_XxpmHCgzANnnH8Q-0">
          <mxGeometry relative="1" as="geometry" />
        </mxCell>
        <mxCell id="NgFh_XxpmHCgzANnnH8Q-3" value="范蠡&lt;br&gt;（自动扩缩容）" style="rounded=0;whiteSpace=wrap;html=1;sketch=0;fontSize=14;fillColor=#f8cecc;strokeColor=#b85450;" vertex="1" parent="WIyWlLk6GJQsqaUBKTNV-1">
          <mxGeometry x="360" y="80" width="120" height="40" as="geometry" />
        </mxCell>
        <mxCell id="NgFh_XxpmHCgzANnnH8Q-19" style="edgeStyle=orthogonalEdgeStyle;curved=0;rounded=1;sketch=0;orthogonalLoop=1;jettySize=auto;html=1;exitX=0.5;exitY=1;exitDx=0;exitDy=0;entryX=0.5;entryY=0;entryDx=0;entryDy=0;" edge="1" parent="WIyWlLk6GJQsqaUBKTNV-1" source="NgFh_XxpmHCgzANnnH8Q-4" target="NgFh_XxpmHCgzANnnH8Q-17">
          <mxGeometry relative="1" as="geometry" />
        </mxCell>
        <mxCell id="NgFh_XxpmHCgzANnnH8Q-20" style="edgeStyle=orthogonalEdgeStyle;curved=0;rounded=1;sketch=0;orthogonalLoop=1;jettySize=auto;html=1;exitX=0.5;exitY=1;exitDx=0;exitDy=0;entryX=0.5;entryY=0;entryDx=0;entryDy=0;" edge="1" parent="WIyWlLk6GJQsqaUBKTNV-1" source="NgFh_XxpmHCgzANnnH8Q-4" target="NgFh_XxpmHCgzANnnH8Q-18">
          <mxGeometry relative="1" as="geometry" />
        </mxCell>
        <mxCell id="NgFh_XxpmHCgzANnnH8Q-4" value="CLI运维通道" style="rounded=0;whiteSpace=wrap;html=1;fontSize=14;fillColor=#f5f5f5;strokeColor=#666666;fontColor=#333333;" vertex="1" parent="WIyWlLk6GJQsqaUBKTNV-1">
          <mxGeometry x="200" y="400" width="280" height="40" as="geometry" />
        </mxCell>
        <mxCell id="NgFh_XxpmHCgzANnnH8Q-12" value="http" style="edgeStyle=orthogonalEdgeStyle;curved=0;rounded=1;sketch=0;orthogonalLoop=1;jettySize=auto;html=1;exitX=1;exitY=0.5;exitDx=0;exitDy=0;entryX=0;entryY=0.5;entryDx=0;entryDy=0;" edge="1" parent="WIyWlLk6GJQsqaUBKTNV-1" source="NgFh_XxpmHCgzANnnH8Q-6" target="NgFh_XxpmHCgzANnnH8Q-1">
          <mxGeometry relative="1" as="geometry" />
        </mxCell>
        <mxCell id="NgFh_XxpmHCgzANnnH8Q-6" value="publish_web" style="rounded=0;whiteSpace=wrap;html=1;fontSize=14;horizontal=1;fillColor=#d5e8d4;strokeColor=#82b366;" vertex="1" parent="WIyWlLk6GJQsqaUBKTNV-1">
          <mxGeometry x="200" y="240" width="120" height="120" as="geometry" />
        </mxCell>
        <mxCell id="NgFh_XxpmHCgzANnnH8Q-9" value="" style="shape=mxgraph.bpmn.user_task;html=1;outlineConnect=0;rounded=0;sketch=0;" vertex="1" parent="WIyWlLk6GJQsqaUBKTNV-1">
          <mxGeometry x="110" y="80" width="40" height="40" as="geometry" />
        </mxCell>
        <mxCell id="NgFh_XxpmHCgzANnnH8Q-24" style="edgeStyle=orthogonalEdgeStyle;curved=0;rounded=1;sketch=0;orthogonalLoop=1;jettySize=auto;html=1;entryX=0.5;entryY=0;entryDx=0;entryDy=0;" edge="1" parent="WIyWlLk6GJQsqaUBKTNV-1" source="NgFh_XxpmHCgzANnnH8Q-10" target="NgFh_XxpmHCgzANnnH8Q-6">
          <mxGeometry relative="1" as="geometry">
            <Array as="points">
              <mxPoint x="130" y="220" />
              <mxPoint x="260" y="220" />
            </Array>
          </mxGeometry>
        </mxCell>
        <mxCell id="NgFh_XxpmHCgzANnnH8Q-10" value="研发人员" style="text;html=1;align=center;verticalAlign=middle;resizable=0;points=[];autosize=1;" vertex="1" parent="WIyWlLk6GJQsqaUBKTNV-1">
          <mxGeometry x="100" y="130" width="60" height="20" as="geometry" />
        </mxCell>
        <mxCell id="NgFh_XxpmHCgzANnnH8Q-17" value="机房" style="rounded=0;whiteSpace=wrap;html=1;fontSize=14;fillColor=#dae8fc;strokeColor=#6c8ebf;" vertex="1" parent="WIyWlLk6GJQsqaUBKTNV-1">
          <mxGeometry x="200" y="480" width="120" height="40" as="geometry" />
        </mxCell>
        <mxCell id="NgFh_XxpmHCgzANnnH8Q-18" value="云" style="rounded=0;whiteSpace=wrap;html=1;fontSize=14;fillColor=#dae8fc;strokeColor=#6c8ebf;" vertex="1" parent="WIyWlLk6GJQsqaUBKTNV-1">
          <mxGeometry x="360" y="480" width="120" height="40" as="geometry" />
        </mxCell>
        <mxCell id="NgFh_XxpmHCgzANnnH8Q-23" value="fastdfs" style="rounded=0;whiteSpace=wrap;html=1;sketch=0;fontSize=14;fillColor=#e1d5e7;strokeColor=#9673a6;" vertex="1" parent="WIyWlLk6GJQsqaUBKTNV-1">
          <mxGeometry x="680" y="300" width="80" height="40" as="geometry" />
        </mxCell>
        <mxCell id="NgFh_XxpmHCgzANnnH8Q-25" value="cmdb&lt;br&gt;3、4" style="rounded=0;whiteSpace=wrap;html=1;sketch=0;fontSize=14;fillColor=#e1d5e7;strokeColor=#9673a6;" vertex="1" parent="WIyWlLk6GJQsqaUBKTNV-1">
          <mxGeometry x="680" y="360" width="80" height="40" as="geometry" />
        </mxCell>
        <mxCell id="NgFh_XxpmHCgzANnnH8Q-27" value="Redis" style="rounded=0;whiteSpace=wrap;html=1;sketch=0;fontSize=14;fillColor=#ffff88;strokeColor=#36393d;" vertex="1" parent="WIyWlLk6GJQsqaUBKTNV-1">
          <mxGeometry x="560" y="470" width="80" height="40" as="geometry" />
        </mxCell>
        <mxCell id="NgFh_XxpmHCgzANnnH8Q-28" value="MySQL" style="rounded=0;whiteSpace=wrap;html=1;sketch=0;fontSize=14;fillColor=#ffff88;strokeColor=#36393d;" vertex="1" parent="WIyWlLk6GJQsqaUBKTNV-1">
          <mxGeometry x="680" y="470" width="80" height="40" as="geometry" />
        </mxCell>
        <mxCell id="NgFh_XxpmHCgzANnnH8Q-21" value="gitlab" style="rounded=0;whiteSpace=wrap;html=1;sketch=0;fontSize=14;fillColor=#e1d5e7;strokeColor=#9673a6;shadow=0;" vertex="1" parent="WIyWlLk6GJQsqaUBKTNV-1">
          <mxGeometry x="560" y="240" width="80" height="40" as="geometry" />
        </mxCell>
        <mxCell id="NgFh_XxpmHCgzANnnH8Q-41" style="edgeStyle=orthogonalEdgeStyle;curved=0;rounded=1;sketch=0;orthogonalLoop=1;jettySize=auto;html=1;exitX=0.5;exitY=0;exitDx=0;exitDy=0;entryX=0.5;entryY=1;entryDx=0;entryDy=0;" edge="1" parent="WIyWlLk6GJQsqaUBKTNV-1" source="NgFh_XxpmHCgzANnnH8Q-22" target="NgFh_XxpmHCgzANnnH8Q-21">
          <mxGeometry relative="1" as="geometry" />
        </mxCell>
        <mxCell id="NgFh_XxpmHCgzANnnH8Q-42" style="edgeStyle=orthogonalEdgeStyle;curved=0;rounded=1;sketch=0;orthogonalLoop=1;jettySize=auto;html=1;exitX=1;exitY=0.5;exitDx=0;exitDy=0;entryX=0;entryY=0.5;entryDx=0;entryDy=0;" edge="1" parent="WIyWlLk6GJQsqaUBKTNV-1" source="NgFh_XxpmHCgzANnnH8Q-22" target="NgFh_XxpmHCgzANnnH8Q-23">
          <mxGeometry relative="1" as="geometry" />
        </mxCell>
        <mxCell id="NgFh_XxpmHCgzANnnH8Q-22" value="jenkins" style="rounded=0;whiteSpace=wrap;html=1;sketch=0;fontSize=14;fillColor=#a0522d;strokeColor=#6D1F00;fontColor=#ffffff;shadow=0;" vertex="1" parent="WIyWlLk6GJQsqaUBKTNV-1">
          <mxGeometry x="560" y="300" width="80" height="40" as="geometry" />
        </mxCell>
        <mxCell id="NgFh_XxpmHCgzANnnH8Q-26" value="MQ" style="rounded=0;whiteSpace=wrap;html=1;sketch=0;fontSize=14;fillColor=#b1ddf0;strokeColor=#10739e;shadow=0;" vertex="1" parent="WIyWlLk6GJQsqaUBKTNV-1">
          <mxGeometry x="560" y="360" width="80" height="40" as="geometry" />
        </mxCell>
        <mxCell id="NgFh_XxpmHCgzANnnH8Q-32" value="OA" style="rounded=0;whiteSpace=wrap;html=1;sketch=0;dashed=1;align=left;horizontal=1;verticalAlign=top;gradientColor=#7ea6e0;fillColor=#dae8fc;strokeColor=#6c8ebf;" vertex="1" parent="WIyWlLk6GJQsqaUBKTNV-1">
          <mxGeometry x="540" y="80" width="240" height="80" as="geometry" />
        </mxCell>
        <mxCell id="NgFh_XxpmHCgzANnnH8Q-33" value="OA审批系统" style="rounded=0;whiteSpace=wrap;html=1;sketch=0;fontSize=14;fillColor=#1ba1e2;strokeColor=#006EAF;shadow=0;fontColor=#ffffff;" vertex="1" parent="WIyWlLk6GJQsqaUBKTNV-1">
          <mxGeometry x="560" y="110" width="80" height="40" as="geometry" />
        </mxCell>
      </root>
    </mxGraphModel>
  </diagram>
</mxfile>
